<?xml version="1.0" encoding="utf-8"?>
<!-- Generator: Adobe Illustrator 18.0.0, SVG Export Plug-In . SVG Version: 6.00 Build 0)  -->
<!DOCTYPE svg PUBLIC "-//W3C//DTD SVG 1.1//EN" "http://www.w3.org/Graphics/SVG/1.1/DTD/svg11.dtd">
<svg version="1.1" id="Layer_1" xmlns="http://www.w3.org/2000/svg" xmlns:xlink="http://www.w3.org/1999/xlink" x="0px" y="0px"
	 viewBox="0 0 200 194.4" enable-background="new 0 0 200 194.4" xml:space="preserve">
<g>
	<path fill="none" d="M38.2,56.2c-8.8,5-17.5,10.2-26.2,15.3c-0.7,0.4-1.3,0.7-2.1,0.2c-0.4-0.2-0.6-0.5-0.7-0.8
		c-0.1,0.5-0.1,1.1,0.6,1.5c0.8,0.5,1.5,0.1,2.1-0.3c8.7-5.1,17.3-10.2,26-15.2c0.8-0.5,1.1-0.9,1.2-1.4
		C38.9,55.8,38.6,56,38.2,56.2z"/>
	<path fill="none" d="M31.6,34.9c0.2-0.3,0.6-0.6,1-1c3.1-2.4,6.4-4.6,9.8-6.5c-3.3,1.8-6.4,3.7-9.4,6C32.3,34,31.8,34.4,31.6,34.9z
		"/>
	<path fill="none" d="M100.4,21.5c-0.1,0.6-0.1,1.3,0,2C100.4,22.9,100.5,22.2,100.4,21.5z"/>
	<path fill="none" d="M15.4,48.3c-2,4.4-3.5,9.3-4.6,14.5c0.1-0.4,0.2-0.7,0.2-1.1C12.2,57.1,13.7,52.7,15.4,48.3z"/>
	<path fill="none" d="M49.8,18.1c-0.9,0.4-1.9,0.8-2.8,1.1c-5,1.9-9.4,4.3-13.4,7c3.5-2.2,7.3-4.1,11.2-5.9
		C46.4,19.6,48.1,18.8,49.8,18.1z"/>
	<path fill="none" d="M100.4,178.3c0,2.8,0,5.6,0,8.3C100.4,183.9,100.4,181.1,100.4,178.3z"/>
	<path fill="none" d="M70.2,9c-0.3,0.1-0.5,0.2-0.7,0.3c-2.5,1.1-5,2.3-7.6,3.5c2.4-1,4.7-2.1,7.1-3.1C69.4,9.4,69.8,9.2,70.2,9z"/>
	<path fill="#9E1F26" d="M196.3,80.1c-3-10.7-4.4-21.8-8.6-32.2c-6.1-15-15.6-26.5-31.9-31.4c-8.5-2.6-16.7-6.5-24.6-10.6
		c-3.1,1.4-1.5,2.5,0.4,3.3c8,3.6,16,7,23.9,10.7c10.9,5.1,21.3,10.8,26.7,22.5c2.8,6.1,5.1,12.3,6.7,18.8c0.6,2.5,1.1,5.1,1.6,7.7
		c0.2,0.8,0.8,1.6-0.4,2.3c-0.8,0.5-1.5,0.2-2.1-0.2c-8.7-5.1-17.3-10.2-26-15.2c-1.6-0.9-1.3-2-0.8-3.3c1.9-5.2,4.1-10.3,6.9-15.2
		c1.1-1.9,0.8-2.9-1-4.2c-5.3-3.9-11-7-16.9-9.7c-0.9,0.5-0.6,1.3-0.6,1.9c0,54.8,0,109.5,0,164.3h3.8c0-0.2,0-0.4,0-0.6
		c-0.1-31.3-0.1-62.6-0.1-93.9c0-4.4,0.3-8.8,1.8-13.6c1.9,5.4,3.2,10.3,4.1,15.4c0.4,2.2,1.3,2.6,3.2,2.6c4.1,0,8.1-0.2,12.1-0.8
		c8.3-1.3,16.7-2.2,24.2-6.5c0-1.1,0-2.2,0-3.3C197.2,86,197.1,82.9,196.3,80.1z"/>
	<path fill="#D1D1D1" d="M101.3,20c-0.5,0.4-0.8,1-0.9,1.6c0,0.7,0,1.3,0,2c0,0.2,0,0.4,0,0.6c0,49.4,0,98.7,0,148.1
		c0,2,0,4.1,0,6.1c0,2.8,0,5.6,0,8.3c0,0.9,0,1.8,0,2.7H112c0-54.6,0-109.3-0.1-163.9c0-2.6,0.5-4.2,3.1-5.3
		c2.9-1.2,5.5-3.2,7.8-5.4c1.2-1.2,2.3-1.7,4-0.9c1.8,0.8,1.1,2.2,1.1,3.4c0,42.3,0,84.7,0,127c0,15,0,30.1,0.1,45.1h20.7
		c0-0.1,0-0.2,0-0.3c0-53.9,0-107.9,0-161.8c0-0.9,0-1.7,0.2-2.6c0.3-1.6,1.2-2.4,2.8-1.7c6.2,2.6,12,5.9,17.1,10.2
		c1.7,1.5,0.9,3.2,0,4.8c-2.3,4-4.1,8.2-5.8,12.5c-1.4,3.4-1.1,4,2,5.8c7.3,4.2,14.5,8.6,21.8,12.7c0.7,0.4,1.5,1.1,2.4,0.6
		c0.6-0.4,0.4-1.2,0.3-1.8c-2.4-11.6-5.4-23-13-32.6c-4-5-9.3-8.2-14.8-11.2c-7.3-4-15-7.1-22.7-10.3c-2.9-1.2-5.8-2.5-8.5-4.2
		c-0.8-0.5-1.6-1.3-1.2-2.4c0.3-0.9,0.9-1.5,2-1c-0.6-0.5-1.3-0.8-1.8-1.4c-1.8-1.8-3.1-2.2-4.8,0.3c-1.6,2.4-3.8,4.4-6.5,5.8
		c-0.9,0.6-1.9,1.1-2.8,1.7c0.7-0.2,1.5-0.4,2.2-0.6C112.8,16.1,107.5,19,101.3,20z"/>
	<path fill="#D1D1D1" d="M129.3,6.9c-0.4,1.2,0.3,1.9,1.2,2.4c2.7,1.7,5.6,3,8.5,4.2c7.7,3.1,15.4,6.3,22.7,10.3
		c5.5,3,10.8,6.2,14.8,11.2c7.6,9.6,10.6,21,13,32.6c0.1,0.6,0.3,1.5-0.3,1.8c-0.9,0.5-1.7-0.2-2.4-0.6c-7.3-4.2-14.5-8.5-21.8-12.7
		c-3.1-1.8-3.3-2.4-2-5.8c1.7-4.2,3.5-8.5,5.8-12.5c0.9-1.5,1.8-3.3,0-4.8c-5.1-4.4-10.9-7.6-17.1-10.2c-1.6-0.7-2.5,0.1-2.8,1.7
		c-0.2,0.9-0.2,1.7-0.2,2.6c0,53.9,0,107.9,0,161.8c0,0.1,0,0.2,0,0.3h1c0-54.8,0-109.5,0-164.3c0-0.6-0.3-1.3,0.6-1.9
		c5.9,2.7,11.6,5.8,16.9,9.7c1.7,1.3,2.1,2.3,1,4.2c-2.8,4.8-5,9.9-6.9,15.2c-0.5,1.3-0.8,2.3,0.8,3.3c8.7,5,17.3,10.2,26,15.2
		c0.7,0.4,1.3,0.7,2.1,0.2c1.1-0.6,0.6-1.5,0.4-2.3c-0.5-2.6-1-5.2-1.6-7.7c-1.6-6.5-3.8-12.7-6.7-18.8
		c-5.5-11.6-15.9-17.4-26.7-22.5c-7.9-3.7-16-7.1-23.9-10.7c-1.8-0.8-3.5-1.8-0.4-3.3C130.2,5.4,129.6,5.9,129.3,6.9z"/>
	<path fill="#FCFCFC" d="M71.3,6.9C71.9,8.3,71,8.7,70.2,9c-0.4,0.2-0.8,0.4-1.2,0.6c-2.3,1-4.7,2.1-7.1,3.1c-4,1.8-8,3.7-12.1,5.3
		c-1.7,0.7-3.3,1.5-5,2.3c-3.9,1.8-7.6,3.7-11.2,5.9c-8.2,5.7-14.1,13.1-18.2,22.1c-1.8,4.4-3.2,8.8-4.4,13.4
		c-0.1,0.4-0.2,0.7-0.2,1.1c-0.1,0.5-0.2,1-0.3,1.6c-0.4,2-0.9,4.1-1.2,6.1c0,0.2-0.1,0.3-0.1,0.5c0.1,0.3,0.2,0.6,0.7,0.8
		c0.8,0.5,1.5,0.2,2.1-0.2c8.7-5.1,17.5-10.3,26.2-15.3c0.4-0.2,0.7-0.4,0.8-0.7c0-0.4-0.1-0.9-0.3-1.5c-1.9-5.5-4.4-10.7-7.1-15.8
		c-0.8-1.5-0.8-2.4-0.1-3.4c0.2-0.5,0.7-1,1.4-1.5c3-2.2,6.2-4.2,9.4-6c2.8-1.6,5.6-3,8.6-4.3c0,55.6,0,110.9,0,166.1h21.8
		c0-20,0-39.9,0.1-59.9c0-37.3,0-74.6,0-111.9c0-1.3-0.6-2.8,1.3-3.6c1.8-0.8,3-0.3,4.3,0.9c2.8,2.5,5.9,4.6,9.3,6.1
		c1.8,0.8,2.2,1.9,2.2,3.8c0,54.9,0,109.7,0,164.6h10.3c0-0.9,0-1.8,0-2.7c0-2.8,0-5.6,0-8.3c0-2.4,0-4.8,0-7.1
		c0-49.2,0-98.4,0-147.6c0,0,0,0,0-0.1c0-0.7-0.1-1.4,0-2c0-0.5-0.1-0.9-0.4-1.4c-0.5,0.1-1.1,0.1-1.6,0.2c-5.6-1.6-10.8-4-15.4-7.9
		c0.8,0.1,1.6,0.3,2.4,0.4c-1-0.6-1.9-1.2-2.9-1.7c-2.7-1.3-4.9-3.4-6.6-5.8c-1.8-2.5-3.1-2.1-4.9-0.3c-0.3,0.3-0.7,0.6-1.1,0.9
		C70.5,5.8,70.9,6,71.3,6.9z"/>
	<path fill="#FCFCFC" d="M100.4,24.1c0-0.2,0-0.4,0-0.6c0,0,0,0,0,0.1c0,49.2,0,98.4,0,147.6c0,2.4,0,4.8,0,7.1c0-2,0-4.1,0-6.1
		C100.4,122.9,100.4,73.5,100.4,24.1z"/>
	<path fill="#FCFCFC" d="M100.4,186.6c0,0.9,0,1.8,0,2.7h0.1C100.4,188.4,100.4,187.5,100.4,186.6z"/>
	<path fill="#FCFCFC" d="M101.3,20c-0.4,0.1-0.8,0.1-1.3,0.2c0.2,0.4,0.3,0.9,0.4,1.4C100.5,21,100.8,20.4,101.3,20z"/>
	<path fill="#BE2028" d="M87.4,30.2c0-1.5,0-3.1-0.1-4.6c-0.1-1.5-0.6-2.7-1.9-3.6c-2.8-1.9-5.7-3.8-8.4-5.8
		c-1.9-1.4-2.9-0.8-3.2,1.7c-0.2,1.4-0.1,2.8-0.1,4.3c0,55.4,0,110.8,0,166.2c0,0.3,0,0.6,0,0.9h13.8c0,0,0-0.1,0-0.1
		C87.4,136.2,87.4,83.2,87.4,30.2z"/>
	<path fill="#BE2028" d="M73.6,188.4c0-55.4,0-110.8,0-166.2c0-1.4-0.1-2.9,0.1-4.3c0.3-2.4,1.3-3,3.2-1.7c2.8,2,5.6,3.9,8.4,5.8
		c1.3,0.9,1.9,2.1,1.9,3.6c0.1,1.5,0.1,3.1,0.1,4.6c0,53,0,106,0,159c0,0,0,0.1,0,0.1H90C90,134.4,90,79.6,90,24.7
		c0-1.8-0.4-3-2.2-3.8c-3.4-1.5-6.5-3.6-9.3-6.1c-1.3-1.2-2.5-1.7-4.3-0.9c-1.9,0.8-1.3,2.3-1.3,3.6c0,37.3,0,74.6,0,111.9
		c0,20,0,39.9-0.1,59.9h0.8C73.6,189,73.6,188.7,73.6,188.4z"/>
	<path fill="#9E1F26" d="M126.9,21.6c0-1.4,0.1-2.8-0.1-4.3c-0.3-2.4-1.3-3-3.2-1.7c-2.8,2-5.6,3.9-8.4,5.8
		c-1.3,0.9-1.9,2.1-1.9,3.6c-0.1,1.5-0.1,3.1-0.1,4.6c0,52.8,0,105.6,0,158.5c0,0.4,0,0.8,0,1.2h13.6c0-0.7,0-1.4,0-2.1
		C126.9,132,126.9,76.8,126.9,21.6z"/>
	<path fill="#9E1F26" d="M113.2,188c0-52.8,0-105.6,0-158.5c0-1.5,0-3.1,0.1-4.6c0.1-1.5,0.6-2.7,1.9-3.6c2.8-1.9,5.6-3.8,8.4-5.8
		c1.9-1.4,2.9-0.8,3.2,1.7c0.2,1.4,0.1,2.8,0.1,4.3c0,55.2,0,110.5,0,165.7c0,0.7,0,1.4,0,2.1h1.2c0-15-0.1-30.1-0.1-45.1
		c0-42.3,0-84.7,0-127c0-1.1,0.7-2.6-1.1-3.4c-1.7-0.7-2.8-0.3-4,0.9c-2.3,2.2-4.9,4.1-7.8,5.4c-2.6,1.1-3.1,2.7-3.1,5.3
		c0.1,54.6,0,109.3,0.1,163.9h1.3C113.3,188.9,113.2,188.5,113.2,188z"/>
	<path fill="#BE2028" d="M50.6,25.6c0-0.6,0.3-1.3-0.6-1.9c-2.6,1.2-5.1,2.4-7.6,3.8c-3.4,1.9-6.7,4.1-9.8,6.5c-0.4,0.3-0.7,0.6-1,1
		c-0.4,0.8-0.2,1.6,0.4,2.8c2.8,4.8,5.1,10,7,15.2c0.4,1,0.7,1.8,0,2.6c-0.1,0.5-0.4,1-1.2,1.4c-8.7,5-17.3,10.2-26,15.2
		c-0.6,0.4-1.3,0.8-2.1,0.3c-0.7-0.4-0.7-1-0.6-1.5c-0.1-0.5,0.2-1,0.3-1.5c0.4-2.2,0.9-4.5,1.4-6.7c1.1-5.2,2.6-10,4.6-14.5
		c0.7-1.8,1.5-3.6,2.4-5.4c3.6-7.6,9.3-12.7,15.8-16.7c3.9-2.7,8.4-5.1,13.4-7c0.9-0.4,1.9-0.7,2.8-1.1c4-1.8,8-3.6,12.1-5.3
		c2.5-1.2,5-2.3,7.6-3.5c0.2-0.1,0.5-0.2,0.7-0.3c1.1-0.7,1.5-1.6-0.9-2.7C69.5,6.2,69.8,6,70,5.8c-0.6,0.1-1.3,0.6-1.9,0.9
		c-8.1,4-16.5,7.5-25,10.6c-7.3,2.6-14,6.2-19,12.3C17.6,37.3,12.9,46,10.4,55.8C7.8,66.5,5.2,77.2,2.5,87.9c-1,4-0.9,4.6,3.2,6
		c10.6,3.7,21.6,5.3,32.8,5.3c1.8,0,2.4-0.7,2.7-2.4c0.9-5.3,2.3-10.4,4.3-15.9c1.6,5.3,2,10.2,1.9,15.1c0,31-0.1,61.9-0.2,92.9
		c0,0.2,0,0.3,0,0.4h3.3C50.6,134.7,50.6,80.1,50.6,25.6z"/>
	<path fill="#BE2028" d="M51,23.2c-3,1.3-5.9,2.8-8.6,4.3c2.5-1.4,5-2.6,7.6-3.8c0.9,0.5,0.6,1.3,0.6,1.9c0,54.6,0,109.2,0,163.7H51
		C51,134,51,78.8,51,23.2z"/>
	<path fill="#BE2028" d="M49.8,18.1c4.1-1.7,8.1-3.5,12.1-5.3C57.8,14.5,53.8,16.3,49.8,18.1z"/>
	<path fill="#BE2028" d="M10.5,64.3c0.1-0.5,0.2-1,0.3-1.6c-0.5,2.2-0.9,4.4-1.4,6.7c-0.1,0.5-0.4,1-0.3,1.5c0-0.2,0.1-0.3,0.1-0.5
		C9.6,68.4,10.1,66.4,10.5,64.3z"/>
	<path fill="#BE2028" d="M33.6,26.2c-6.5,4-12.2,9.1-15.8,16.7c-0.8,1.8-1.6,3.6-2.4,5.4C19.5,39.3,25.4,31.9,33.6,26.2z"/>
	<path fill="#BE2028" d="M31.6,38.3c2.8,5.1,5.3,10.3,7.1,15.8c0.2,0.6,0.3,1.1,0.3,1.5c0.6-0.8,0.3-1.6,0-2.6
		c-1.9-5.3-4.2-10.4-7-15.2c-0.7-1.2-0.8-2-0.4-2.8C30.8,35.9,30.8,36.8,31.6,38.3z"/>
	<path fill="#BE2028" d="M70.2,9c0.9-0.3,1.8-0.7,1.2-2.1C70.9,6,70.5,5.8,70,5.8c-0.2,0.2-0.5,0.3-0.7,0.5
		C71.7,7.4,71.3,8.3,70.2,9z"/>
	<path fill="#980705" d="M100.4,18.4c5.5-0.7,10.2-3.3,14.9-6.1c-9.9,2.3-19.9,2.1-29.9,0.6c4.4,2.6,8.8,5.1,14,5.9
		C99.7,18.5,100.1,18.4,100.4,18.4z"/>
	<path fill="#980705" d="M99.4,18.8c0.3,0,0.6,0.1,0.9,0.1c0.6,0.1,1,0.3,1.4,0.8c-0.1,0.1-0.3,0.2-0.4,0.3c6.2-1,11.5-3.9,16.1-8.3
		c-0.7,0.2-1.5,0.4-2.2,0.6c-4.6,2.8-9.3,5.4-14.9,6.1C100.1,18.4,99.7,18.5,99.4,18.8z"/>
	<path fill="#980705" d="M98.4,20.3c0.6,0,1.1-0.1,1.6-0.2c-0.2-0.4-0.5-0.7-1-1c0.1-0.2,0.2-0.3,0.4-0.4c-5.2-0.9-9.6-3.3-14-5.9
		c-0.8-0.1-1.6-0.3-2.4-0.4C87.7,16.3,92.8,18.7,98.4,20.3z"/>
	<path fill="#980705" d="M101.7,19.7c-0.3-0.5-0.8-0.7-1.4-0.8c-0.3,0-0.6-0.1-0.9-0.1c-0.1,0.1-0.3,0.2-0.4,0.4
		c0.5,0.3,0.8,0.6,1,1c0.4-0.1,0.9-0.1,1.3-0.2C101.5,19.9,101.6,19.8,101.7,19.7z"/>
</g>
</svg>
